<?xml version="1.0" encoding="utf-8"?>
<!-- Generator: Adobe Illustrator 19.0.0, SVG Export Plug-In . SVG Version: 6.00 Build 0)  -->
<svg version="1.1" id="Layer_1" xmlns="http://www.w3.org/2000/svg" xmlns:xlink="http://www.w3.org/1999/xlink" x="0px" y="0px"
	 viewBox="0 0 233 17.6" style="enable-background:new 0 0 233 17.6;" xml:space="preserve">
<style type="text/css">
	.st0{fill:#231F20;}
	.st1{fill:#3C7DC0;}
</style>
<g id="XMLID_156_">
	<g id="XMLID_131_">
		<path id="XMLID_132_" class="st0" d="M31.2,2.3c-0.7,0-1.3,0.1-1.7,0.4C29,3,28.8,3.4,28.8,4c0,0.6,0.2,1,0.7,1.3
			c0.4,0.3,1.4,0.6,2.9,1c1.5,0.4,2.6,0.9,3.3,1.5s1.1,1.6,1.1,2.8c0,1.2-0.5,2.3-1.4,3s-2.2,1.2-3.7,1.2c-2.2,0-4.2-0.8-6-2.3
			l1.5-1.8c1.4,1.3,2.9,1.9,4.5,1.9c0.8,0,1.4-0.2,1.9-0.5c0.5-0.3,0.7-0.8,0.7-1.3c0-0.6-0.2-1-0.6-1.3c-0.4-0.3-1.2-0.6-2.2-0.8
			c-1.1-0.3-1.8-0.5-2.4-0.7c-0.5-0.2-1-0.5-1.5-0.8c-0.8-0.6-1.3-1.6-1.3-2.9c0-1.3,0.5-2.3,1.4-3.1c1-0.7,2.2-1.1,3.6-1.1
			c0.9,0,1.8,0.1,2.7,0.4c0.9,0.3,1.7,0.7,2.3,1.3L35,3.6c-0.4-0.4-1-0.7-1.7-0.9C32.6,2.4,31.9,2.3,31.2,2.3z"/>
		<path id="XMLID_134_" class="st0" d="M49.1,11.4l-1.4,3.3h-2.6l6.3-14.3H54l6.3,14.3h-2.6l-1.4-3.3H49.1z M55.3,9.2l-2.6-5.9
			l-2.6,5.9H55.3z"/>
		<path id="XMLID_137_" class="st0" d="M69.8,14.7V0.4h2.4v12h6.5v2.3H69.8z"/>
		<path id="XMLID_139_" class="st0" d="M98.9,0.4v2.3h-7.6v3.8h6.9v2.1h-6.9v3.8h7.9v2.3H88.8V0.4H98.9z"/>
		<path id="XMLID_141_" class="st0" d="M114,2.3c-0.7,0-1.3,0.1-1.7,0.4c-0.5,0.3-0.7,0.7-0.7,1.3c0,0.6,0.2,1,0.7,1.3
			c0.4,0.3,1.4,0.6,2.9,1c1.5,0.4,2.6,0.9,3.3,1.5s1.1,1.6,1.1,2.8c0,1.2-0.5,2.3-1.4,3s-2.2,1.2-3.7,1.2c-2.2,0-4.2-0.8-6-2.3
			l1.5-1.8c1.4,1.3,2.9,1.9,4.5,1.9c0.8,0,1.4-0.2,1.9-0.5c0.5-0.3,0.7-0.8,0.7-1.3c0-0.6-0.2-1-0.6-1.3c-0.4-0.3-1.2-0.6-2.2-0.8
			c-1.1-0.3-1.8-0.5-2.4-0.7c-0.5-0.2-1-0.5-1.5-0.8c-0.8-0.6-1.3-1.6-1.3-2.9c0-1.3,0.5-2.3,1.4-3.1c1-0.7,2.2-1.1,3.6-1.1
			c0.9,0,1.8,0.1,2.7,0.4c0.9,0.3,1.7,0.7,2.3,1.3l-1.3,1.8c-0.4-0.4-1-0.7-1.7-0.9C115.4,2.4,114.7,2.3,114,2.3z"/>
		<path id="XMLID_143_" class="st0" d="M137,14.8l-0.3,0c-2.1,0-3.9-0.7-5.4-2.1s-2.2-3.2-2.2-5.3c0-2.1,0.7-3.9,2.2-5.3
			s3.2-2.1,5.4-2.1s3.9,0.7,5.4,2.1s2.2,3.2,2.2,5.3c0,1.6-0.4,3-1.3,4.2c-0.9,1.2-2,2.1-3.4,2.7c0.5,0.6,1,0.9,1.8,0.9
			c0.5,0,1-0.1,1.5-0.4c0.5-0.3,0.9-0.6,1.1-1.1l1.4,1.9c-1.2,1.3-2.5,1.9-4.1,1.9c-0.9,0-1.7-0.2-2.5-0.7S137.3,15.7,137,14.8z
			 M140.2,3.7c-1-1-2.2-1.5-3.6-1.5s-2.6,0.5-3.6,1.5c-1,1-1.5,2.2-1.5,3.7s0.5,2.7,1.5,3.7s2.2,1.5,3.6,1.5s2.6-0.5,3.6-1.5
			c1-1,1.5-2.2,1.5-3.7S141.2,4.8,140.2,3.7z"/>
		<path id="XMLID_146_" class="st0" d="M157.9,11.4c0.7,0.8,1.5,1.1,2.7,1.1s2-0.4,2.7-1.1c0.7-0.8,1-1.8,1-3.1V0.4h2.4v8
			c0,2.1-0.6,3.6-1.7,4.8s-2.6,1.7-4.4,1.7s-3.2-0.6-4.4-1.7s-1.7-2.7-1.7-4.8v-8h2.4v7.9C156.9,9.6,157.3,10.6,157.9,11.4z"/>
		<path id="XMLID_148_" class="st0" d="M179.6,11.4l-1.4,3.3h-2.6l6.3-14.3h2.6l6.3,14.3h-2.6l-1.4-3.3H179.6z M185.8,9.2l-2.6-5.9
			l-2.6,5.9H185.8z"/>
		<path id="XMLID_151_" class="st0" d="M211.6,5c0,2.4-1,3.8-3.1,4.5l3.7,5.2h-3.1l-3.4-4.8h-3.2v4.8h-2.4V0.4h5.3
			c2.2,0,3.7,0.4,4.7,1.1C211.2,2.2,211.6,3.4,211.6,5z M208.4,7c0.5-0.4,0.7-1.1,0.7-2c0-0.9-0.3-1.6-0.8-1.9
			c-0.5-0.3-1.4-0.5-2.7-0.5h-3.1v5.1h3C207,7.7,207.9,7.5,208.4,7z"/>
		<path id="XMLID_154_" class="st0" d="M232.6,0.4v2.3H225v3.8h6.9v2.1H225v3.8h7.9v2.3h-10.3V0.4H232.6z"/>
	</g>
	<rect id="XMLID_384_" class="st1" width="15.1" height="15.1"/>
</g>
</svg>
